<svg width="844" height="702" viewBox="0 0 844 702" xmlns="http://www.w3.org/2000/svg" xmlns:xlink="http://www.w3.org/1999/xlink" data-cache="1690127171386">
<style>
path.line-0 {
  stroke-dasharray: 334 339;
  stroke-dashoffset: 334;
  animation: draw-0 3.27s ease forwards infinite;
}
@keyframes draw-0 {
  0% { stroke-dashoffset: 334; }
  17.02% { stroke-dashoffset: 0; }
  100% { stroke-dashoffset: 0; }
}
path.line-1 {
  stroke-dasharray: 37 42;
  stroke-dashoffset: 37;
  animation: draw-1 3.27s ease forwards infinite;
}
@keyframes draw-1 {
  0% { stroke-dashoffset: 37; }
  17.02% { stroke-dashoffset: 37; }
  18.91% { stroke-dashoffset: 0; }
  100% { stroke-dashoffset: 0; }
}
path.line-2 {
  stroke-dasharray: 89 94;
  stroke-dashoffset: 89;
  animation: draw-2 3.27s ease forwards infinite;
}
@keyframes draw-2 {
  0% { stroke-dashoffset: 89; }
  18.91% { stroke-dashoffset: 89; }
  23.45% { stroke-dashoffset: 0; }
  100% { stroke-dashoffset: 0; }
}
path.line-3 {
  stroke-dasharray: 145 150;
  stroke-dashoffset: 145;
  animation: draw-3 3.27s ease forwards infinite;
}
@keyframes draw-3 {
  0% { stroke-dashoffset: 145; }
  23.45% { stroke-dashoffset: 145; }
  30.84% { stroke-dashoffset: 0; }
  100% { stroke-dashoffset: 0; }
}
path.line-4 {
  stroke-dasharray: 80 85;
  stroke-dashoffset: 80;
  animation: draw-4 3.27s ease forwards infinite;
}
@keyframes draw-4 {
  0% { stroke-dashoffset: 80; }
  30.84% { stroke-dashoffset: 80; }
  34.92% { stroke-dashoffset: 0; }
  100% { stroke-dashoffset: 0; }
}
path.line-5 {
  stroke-dasharray: 128 133;
  stroke-dashoffset: 128;
  animation: draw-5 3.27s ease forwards infinite;
}
@keyframes draw-5 {
  0% { stroke-dashoffset: 128; }
  34.92% { stroke-dashoffset: 128; }
  41.44% { stroke-dashoffset: 0; }
  100% { stroke-dashoffset: 0; }
}
path.line-6 {
  stroke-dasharray: 139 144;
  stroke-dashoffset: 139;
  animation: draw-6 3.27s ease forwards infinite;
}
@keyframes draw-6 {
  0% { stroke-dashoffset: 139; }
  41.44% { stroke-dashoffset: 139; }
  48.52% { stroke-dashoffset: 0; }
  100% { stroke-dashoffset: 0; }
}
path.line-7 {
  stroke-dasharray: 247 252;
  stroke-dashoffset: 247;
  animation: draw-7 3.27s ease forwards infinite;
}
@keyframes draw-7 {
  0% { stroke-dashoffset: 247; }
  48.52% { stroke-dashoffset: 247; }
  61.11% { stroke-dashoffset: 0; }
  100% { stroke-dashoffset: 0; }
}
path.line-8 {
  stroke-dasharray: 298 303;
  stroke-dashoffset: 298;
  animation: draw-8 3.27s ease forwards infinite;
}
@keyframes draw-8 {
  0% { stroke-dashoffset: 298; }
  61.11% { stroke-dashoffset: 298; }
  76.3% { stroke-dashoffset: 0; }
  100% { stroke-dashoffset: 0; }
}
path.line-9 {
  stroke-dasharray: 143 148;
  stroke-dashoffset: 143;
  animation: draw-9 3.27s ease forwards infinite;
}
@keyframes draw-9 {
  0% { stroke-dashoffset: 143; }
  76.3% { stroke-dashoffset: 143; }
  83.59% { stroke-dashoffset: 0; }
  100% { stroke-dashoffset: 0; }
}
path.line-10 {
  stroke-dasharray: 139 144;
  stroke-dashoffset: 139;
  animation: draw-10 3.27s ease forwards infinite;
}
@keyframes draw-10 {
  0% { stroke-dashoffset: 139; }
  83.59% { stroke-dashoffset: 139; }
  90.67% { stroke-dashoffset: 0; }
  100% { stroke-dashoffset: 0; }
}
path.line-11 {
  stroke-dasharray: 118 123;
  stroke-dashoffset: 118;
  animation: draw-11 3.27s ease forwards infinite;
}
@keyframes draw-11 {
  0% { stroke-dashoffset: 118; }
  90.67% { stroke-dashoffset: 118; }
  96.68% { stroke-dashoffset: 0; }
  100% { stroke-dashoffset: 0; }
}
path.line-12 {
  stroke-dasharray: 67 72;
  stroke-dashoffset: 67;
  animation: draw-12 3.27s ease forwards infinite;
}
@keyframes draw-12 {
  0% { stroke-dashoffset: 67; }
  96.68% { stroke-dashoffset: 67; }
  100.09% { stroke-dashoffset: 0; }
  100% { stroke-dashoffset: 0; }
}
</style><rect x="0" y="0" width="844" height="702" fill="#fff">

</rect><g mask="url(#brush)">
<path d="M279,223L282,218L285,213L288,205L285,201L279,196L270,190L262,189L248,191L238,196L224,207L216,216L216,222L221,227L236,233L247,238L260,247L269,267L270,278L265,291L248,307L233,315L205,327L192,330L180,327L171,318L167,312L168,308L170,307" stroke-width="12" stroke-linecap="round" stroke-linejoin="round" stroke="#000" fill="none" class="line-0">

</path><path d="M291,285L288,284L288,283L289,283L292,283L299,282L304,281L313,281L319,279L320,279" stroke-width="12" stroke-linecap="round" stroke-linejoin="round" stroke="#000" fill="none" class="line-1">

</path><path d="M315,263L315,262L314,263L311,274L307,286L303,298L302,308L308,315L312,316L318,317L328,310L333,303" stroke-width="12" stroke-linecap="round" stroke-linejoin="round" stroke="#000" fill="none" class="line-2">

</path><path d="M337,295L337,296L338,298L342,299L352,298L360,296L369,290L373,286L373,283L371,277L369,275L366,273L363,275L356,283L352,291L349,298L349,305L353,313L357,314L364,314L370,311L384,301L387,297" stroke-width="12" stroke-linecap="round" stroke-linejoin="round" stroke="#000" fill="none" class="line-3">

</path><path d="M390,285L389,286L387,286L387,289L387,291L387,300L387,307L389,310L393,312L401,308L407,302L414,295L419,290L425,285L429,282" stroke-width="12" stroke-linecap="round" stroke-linejoin="round" stroke="#000" fill="none" class="line-4">

</path><path d="M427,297L427,299L431,300L435,300L447,294L455,289L457,283L457,280L453,276L449,275L444,277L441,283L436,295L435,300L436,311L438,312L450,309L454,307L465,298L466,297" stroke-width="12" stroke-linecap="round" stroke-linejoin="round" stroke="#000" fill="none" class="line-5">

</path><path d="M476,287L473,293L472,300L470,310L471,311L476,308L480,306L486,300L492,293L499,287L503,283L504,283L503,286L501,292L499,301L499,314L501,316L508,313L514,311L521,308L527,306L534,303" stroke-width="12" stroke-linecap="round" stroke-linejoin="round" stroke="#000" fill="none" class="line-6">

</path><path d="M306,348L305,346L305,347L305,351L305,357L305,370L303,388L300,410L292,425L287,430L273,438L262,441L255,438L253,430L254,421L257,419L262,418L265,419L273,421L292,426L302,428L328,432L336,432L351,428L355,427" stroke-width="12" stroke-linecap="round" stroke-linejoin="round" stroke="#000" fill="none" class="line-7">

</path><path d="M365,400L364,400L363,403L362,407L359,417L359,429L364,431L371,430L379,423L386,416L393,407L395,402L398,395L398,394L397,395L394,400L391,407L389,412L387,423L385,437L380,468L378,476L371,490L362,503L357,508L347,518L340,523L333,524L326,521L321,517L315,509L311,499L310,493L314,484L316,480" stroke-width="12" stroke-linecap="round" stroke-linejoin="round" stroke="#000" fill="none" class="line-8">

</path><path d="M416,405L416,403L416,402L416,405L413,412L409,423L408,430L408,435L409,434L411,432L416,425L420,419L424,413L434,406L435,406L435,408L435,414L434,419L432,426L432,431L435,433L441,432L450,427L460,419L463,416L464,414" stroke-width="12" stroke-linecap="round" stroke-linejoin="round" stroke="#000" fill="none" class="line-9">

</path><path d="M468,401L469,404L469,409L466,418L462,426L461,431L464,430L465,427L472,420L480,412L490,404L492,402L493,403L494,406L494,413L493,419L493,426L496,431L505,430L510,427L521,419L525,416" stroke-width="12" stroke-linecap="round" stroke-linejoin="round" stroke="#000" fill="none" class="line-10">

</path><path d="M534,408L537,408L540,407L545,404L548,402L551,399L555,396L558,392L560,385L565,375L569,365L570,359L568,355L566,350L563,346L562,343L562,339L560,338L558,339L555,341L552,343L549,346L545,351L543,354L543,356L544,357L545,357" stroke-width="12" stroke-linecap="round" stroke-linejoin="round" stroke="#000" fill="none" class="line-11">

</path><path d="M544,360L544,358L544,357L543,356L543,355L541,352L539,351L537,351L535,351L532,351L530,352L529,353L527,355L526,357L524,360L522,363L521,365L521,367L522,371L524,375L525,376L528,377L532,379L535,380L537,381L540,382L540,383L541,383" stroke-width="12" stroke-linecap="round" stroke-linejoin="round" stroke="#000" fill="none" class="line-12">

</path>
</g><mask id="brush">
<rect x="0" y="0" width="100%" height="100%" fill="black">

</rect><path d="M278.99105572809,222.995527864045L282.82887380727516,210.36478964837946L278.32386395435907,200.94375020180885L271.4456723941782,196.2327231785648L254.5114363567957,195.44984594297046L245.1885089390383,198.7543051173503L233.46881863007297,206.52570169932383L224.39732227431637,214.67022147757385L232.7524914791627,225.62790217740167L243.29516275876674,230.91416765705003L256.0644579326554,239.0716313256601L267.4575542320762,256.1374549881892L272.1027306785078,270.01991409748183L270.3148383694063,285.03140738216865L257.77024098385755,301.8284656247964L243.08997703949723,313.0226956422694L219.323862352437,324.8837128974724L202.25959043377193,331.0340577059859L187.01868711565425,331.32186939706577L174.7146323455636,324.5991490827564L168.4829076871898,316.95692735374126L169.5812112559061,308.2169200808676L169.5906919921934,308.2201005901744L169.6001727284807,308.2232810994812L172.254624835977,313.39604824241957L178.6183160709839,317.63033612860886L187.50053359179913,322.5532675078561L199.40244889894936,322.60765507714723L215.35630789927393,316.871560511805L237.72830201849683,305.8417904675653L250.74992847954002,296.21884028577676L261.61104244378623,283.1932867658176L263.42346964629144,272.4526659541286L259.70514397394754,261.0464189045236L250.8385498321185,246.6754960565859L239.1237978288199,239.40470574968163L228.01640547230534,234.0704433225457L215.73919039252476,226.30986137577997L213.39888129183117,217.3156492309998L217.96081034243946,207.9450583399142L228.25322618127808,198.5454025115458L242.18608162437937,189.6247600501379L254.12727401169101,186.16009714881778L267.47413501241647,186.27519387124735L276.27319957803064,190.03343155951745L283.8249795813909,197.03660772669113L287.68899722690793,204.31062991558213L286.8981261927248,212.18121035162054L279.00894427191,223.004472135955Z" fill="white">

</path><path d="M290.9964887655841,284.9906367082243L295.6829148877848,281.632337007859L308.74316752404815,278.47239879648544L318.4252630480777,279.2632243143651L318.4269734632289,279.273076952591L318.42868387838007,279.2829295908169L309.0920922299519,284.0244623582646L296.74108511221516,284.458662992141L291.0035112344159,285.0093632917757Z" fill="white">

</path><path d="M315.00944496796706,263.0032852062494L312.0139077276027,278.7587281891378L308.43863976076915,292.06291938868037L306.8938855851047,302.5164062320835L313.0812142244636,310.68811922890956L322.1107300068249,309.1520055699819L329.69827519543173,306.1589829741558L329.70520414501806,306.16619335955676L329.7121330946044,306.17340374495774L324.9808289315858,315.0184010845763L314.6561005840719,320.45293285787034L302.40963048077566,312.149552128493L299.4519501608953,301.65173874816645L302.2925962392308,289.9862771113196L307.5620922723973,277.21027181086225L314.99055503203294,262.9967147937506Z" fill="white">

</path><path d="M337.0019611613514,294.9901941932431L347.1122991318611,295.16626082147377L355.1431184650084,293.74921572578756L362.8440165211628,289.1937698057642L368.2371243365743,283.2195719331506L359.1122559036315,290.2059276348867L355.21859131880825,301.97679894775086L361.8041738131961,307.75907783263654L376.3074166214961,302.07108693322476L383.8638646290786,299.7017495705873L383.8704097927083,299.7093100489492L383.876954956338,299.7168705273111L379.73223785602653,307.47732080823386L368.3413717489697,317.2353567641825L360.0623990788061,319.0033513645059L351.66440089638564,316.5346287130126L346.61242065676356,310.76429482014436L344.0997383400175,300.52313635412014L345.83956150804875,291.77536061954L349.7424599112317,284.213041975565L355.163962847323,276.25259441467506L369.06055951482256,270.1232471507718L375.79463031239425,279.0948135849581L372.2756493817798,291.19857187591487L365.6699642050872,295.2200825394858L355.63731403499156,298.9160707742124L346.43270086813885,298.7427391785262L336.9980388386486,295.0098058067569Z" fill="white">

</path><path d="M390.0098058067569,285.0019611613514L390.15190315345126,295.19224268216226L390.2015410281111,302.94094292496885L401.03793055322785,300.69579205269133L407.0995552570828,294.6358472939078L412.78927480964796,289.5411003301397L420.09882900280536,285.72989499016313L426.5080982953157,283.9950405980076L426.51437257165946,284.00282734677467L426.52064684800325,284.0106140955417L423.6364511788844,289.76409265273304L419.2344846787014,296.2235700942395L413.75197842541183,301.90553125524355L406.4499709747339,308.0743042146007L398.77371878978903,312.80399007883204L390.5092074978882,313.4831604218747L384.52717247188895,302.5364895750311L385.93909684654875,294.3527573178377L389.9901941932431,284.9980388386486Z" fill="white">

</path><path d="M426.9985165954707,296.99011063647134L439.6744192571567,292.77412554588L448.5130212466262,288.3400802486677L452.53419502845003,281.70550047079695L443.15799478676576,292.34910553645915L441.4833111937516,305.93751516028874L449.65036127426646,303.02588951879983L458.89416165043497,299.64105486622077L463.95323688319934,298.5314320668655L463.9592590418154,298.53941539985385L463.9652812004315,298.5473987328422L461.3942690056075,303.19346679721593L445.98238943135175,314.68176001379913L436.3712629953466,314.5043634952434L430.64399650361617,305.9786781577146L431.0015709450734,294.8542431738572L433.6290980613931,287.7516609623364L438.9148892278059,277.49830329023035L444.920999076921,272.28380755197037L457.67350905432306,275.88030006144993L457.21630423741726,288.17972730035365L451.05288875337385,293.87363325133236L440.3855807428432,297.31687445412L427.0014834045293,297.00988936352866Z" fill="white">

</path><path d="M476.00955779008723,287.0029408584884L474.7961670742155,295.9006838306273L473.48359712970273,305.4640260485455L473.7464194012694,309.51335927936725L473.51849482379225,310.1371843261641L473.1478979752081,310.6883333784619L472.656167961769,311.1347736274453L472.0718841549599,311.4505579448677L471.429005157085,311.6173329313633L470.7648951257063,311.62540561688115L470.1181521670507,311.47430681655965L469.52636501226226,311.1728183997728L469.0239283585823,310.7384628874696L468.64004384792963,310.1964850424333L468.39702286610003,309.5783846424821L468.30898980397586,308.92008571190246L468.38106114726384,308.25984861546976L476.6886873875825,303.6869399199051L485.72983753003945,293.25693753358445L492.2500867488465,286.70727203218576L499.08666813936105,280.0846934400888L500.1006547227631,279.3206449986299L501.26802929905296,278.82147026885355L502.5209440030076,278.6161813095078L503.78657937316547,278.71670952455537L504.99137662234716,279.11721220941445L506.0653128778232,279.79441212922336L506.9459709139666,280.7089503928249L507.5821668443392,281.80767399336895L507.93692493157613,283.0267250635687L507.98962661897906,284.2952522979472L507.73720888199983,285.53952883404094L507.19434225137155,286.68723726111006L506.3925781611728,287.6716727114484L505.3751393825465,298.30856996487495L504.7111070909077,308.3376619624103L515.8475609787373,304.8301589229214L530.4042778802595,304.43686084385195L530.4080125766607,304.4461372678823L530.4117472730618,304.45541369191267L519.173994021861,313.7672860463121L512.277383124231,317.05224335012326L499.61626522678614,317.9704654138564L493.9363304861838,307.8446824862331L494.48264419590834,295.7813710642312L496.39863479655725,288.1594543534612L499.08628882692864,280.08505877352326L500.10019900041675,279.3209089372265L501.2675236533968,278.8216174724885L502.520417822191,278.616203222699L503.78606323884213,278.7166048737072L504.99090053226826,279.116987076839L506.0649045023665,279.7940795996366L506.9456539879328,280.7085297928619L507.5819597874843,281.8071897683194L507.93683977805426,283.0262053566152L507.9896683179169,284.2947273144824L507.73737500985317,285.5390290861284L507.19462315278173,286.6867917941219L506.3929575101367,287.671307415947L498.7368167420124,293.75109210710184L492.14649960298476,299.27495382735543L485.7512052520604,305.3473361672738L473.74648204997555,309.51309100518813L473.5186198561426,310.13693884132357L473.14807812431656,310.6881249505504L472.6563927573609,311.1346143703029L472.07214053190495,311.45045711452696L471.429278214743,311.61729638808833L470.76516899395347,311.62543548456887L470.11841092865154,311.47440135929855L469.52659362798045,311.1729721227345L469.0241135412615,310.7386668562684L468.64017483474385,310.19672740239304L468.39709204408945,309.5786513076305L468.30899315251247,308.92036118364854L468.3809984717306,308.2601168833827L468.8820208702973,304.40821545145445L471.99183292578454,295.03831616937265L475.99044220991277,286.9970591415116Z" fill="white">

</path><path d="M306.0099896854021,348.0004540766092L307.60274878820167,362.43557445869203L307.1224295474352,379.3574126974713L305.4529719568839,399.7477412626435L299.48127169564685,417.55996290851044L293.77157790032487,427.57331317050625L281.6299994270186,437.1644201869413L269.52745211056225,442.57630851131216L258.1009448317152,442.208881415606L251.29312418115188,435.47721005133076L249.52297766584152,425.3506703330746L257.73363634928546,414.3801852295813L270.67466107352874,414.9764632641002L285.4644995274427,419.00855944671576L296.8801273517857,421.7541369174377L317.5724793971292,425.35834521702566L329.71478656064477,426.73635702282036L343.0220046710901,426.46988612641223L350.9687104827182,427.74501010010374L350.97055175994916,427.7548391233593L350.9723930371801,427.7646681466149L343.85347171312304,431.86204571496114L328.8862934514446,435.95498255070436L315.9801174811761,434.8865316080095L294.70838592886065,431.4707607153747L282.92147832233144,429.02844954270296L268.5218320391659,425.6519699910468L259.23023790300635,430.19374522235887L266.2387406455063,434.2055236382747L276.13239011693696,429.86235786065373L285.97989855291934,422.67856071068456L291.0222475389133,414.4683696056668L297.2084892613661,398.68362893585646L300.5144749525648,378.75268830252867L303.09425121179834,362.2304255413079L305.9900103145979,347.9995459233908Z" fill="white">

</path><path d="M365.00942990333584,400.00332820117734L362.94407518538304,411.71810514530733L362.48007108352493,422.80193581163L373.0341918982923,421.53000704457514L379.2068414696548,415.6706294178153L385.57379767802104,408.0306835794061L391.5232315586014,396.2492923974609L392.0859139086402,393.2752815583204L392.6946959150633,392.12262226662887L393.5616447351205,391.1491548981626L394.63637326265683,390.41145742211495L395.8564182251559,389.9524048504545L397.1508705520736,389.7986773402146L398.4444966133501,389.95920954151325L399.66211080152306,390.42467131526837L400.73294532276657,391.16801000131966L401.59476322439303,392.1460227203083L402.1974756094676,393.3018673270549L402.5060528058513,394.56836607870815L402.50256029239205,395.87191000831587L402.18720105413604,397.13673708144245L397.44773776680887,406.348409339753L393.49519431068984,419.43762810825564L391.2408788419417,431.29893152053324L387.06601064894073,455.71364268420893L384.19495986289104,469.5959389363715L378.3442159877862,484.30913714856115L370.1802951760095,498.22886645489103L363.9662539175965,506.6295591035932L355.0057547465376,516.2079997229852L347.05111788057036,523.1558790707725L338.3529817663328,526.9970450038978L329.0268756894272,526.436073790257L321.63744039969504,523.0806062632486L314.3721062540644,515.8532781844392L309.06479312726054,506.00946236414234L306.9505695638279,497.7798503133278L310.587730782566,487.8925640051672L314.95566180648007,482.9344019221445L314.96509366061906,482.93772459087626L314.97452551475806,482.941047259608L315.4730649742149,488.9666875924012L317.92392677525964,501.28492779798603L321.94272847339676,508.81642098953006L330.53422118165776,516.5691045738268L341.03243241252767,515.9038037600003L348.18951151773206,509.8771733925749L356.4190151333925,500.92043548911846L362.14185418120417,493.5243461497335L369.53569608456297,480.81055468680324L374.6770977335198,467.705902771991L377.17518761909616,454.11086723935637L380.9289870634725,429.59205821710026L382.73110670915,416.94684746601564L387.40516960905205,401.6080474098855L392.0857208863713,393.27578664198285L392.69438762382146,392.123066477854L393.5612390928073,391.14951241937325L394.6358938452225,390.4117074741616L395.8558928963642,389.9525329003003L397.1503298440587,389.7986759455966L398.4439719520871,389.95907878348663L399.6616326803493,390.4244187934958L400.73254153010714,391.1676503923785L401.5944572286962,392.1455769246871L402.1972851952177,393.301361254416L402.5059890399335,394.5678291420172L402.50262688088446,395.8713734143585L402.18739412691235,397.13623201708475L400.9882207656867,400.87786313407645L397.34525268997044,407.9267320385247L392.9192300286544,414.4799288755908L385.2523485064585,422.75006629236253L377.3279027247014,428.89379700184617L367.9396936557337,432.92393386944065L360.3612710856944,430.27407390908303L356.9773559164751,422.7046876883699L359.237924814617,410.4328948546926L364.99057009666416,399.99667179882266Z" fill="white">

</path><path d="M416.0093200467154,405.0036244626115L413.37352919250935,417.4773308152687L411.9266467947954,426.0781156727328L412.2724024898363,433.61222062188074L412.0678361711843,434.43136904245944L411.673173388101,435.1777555383932L411.1113519600824,435.8080000914697L410.41502497492195,436.28547285865204L409.624662989714,436.5824231002777L408.78620188017385,436.6815920543512L407.9483730453828,436.57721601660245L407.15987113658423,436.2753613272494L406.4665239217651,435.79357179501994L405.90862877362747,435.1598490501639L405.5186105843936,434.41102508838776L405.31913722954687,433.59062159353317L405.321802109843,432.7463204552677L410.7813243834375,425.0859295532106L417.8918015919686,413.3703082087458L426.52182307461766,405.6353338394857L438.13778163922933,405.082703409237L439.8926661341723,417.11135456874376L437.8947381504566,428.0598110017369L443.8156879225583,423.42937424043237L452.87913002495,419.11134400208397L462.6879229190098,415.46344939976257L462.6954024322177,415.47008693561355L462.7028819454256,415.47672447146454L457.3764507850832,425.619370095243L448.2232814032183,433.8840091091429L438.3263241666125,437.56766427878125L430.87905523791017,435.4032508526796L427.2321541367432,421.3671785308243L433.0277949024549,413.42764166200914L421.5841422804066,424.5670403315976L412.27244575009144,433.6118730875337L412.06796134730416,434.4310419606485L411.6733732048437,435.17746791912856L411.1116148040894,435.8077686511965L410.4153355696872,436.2853110486899L409.6250032834552,436.5823403250292L408.7865520950027,436.6815931247177L407.9487128267971,436.57730087037413L407.16018073647217,436.27552503272113L406.4667853461666,435.79380483762196L405.908826828544,435.1601378854493L405.51873375886424,434.4113529292361L405.3191783646655,433.590969385819L405.32175881483465,432.746667985287L406.4706847052047,424.67060332726714L409.50547080749067,415.97666918473124L415.9906799532846,404.9963755373885Z" fill="white">

</path><path d="M468.00993150604324,401.0011684124757L468.554449573455,412.30244076413373L466.16959601795696,422.0012706129505L466.59269989340675,430.0398595855259L466.2837636970734,430.80811480664977L465.79994394735127,431.4801089345763L465.16936027082636,432.01678563901703L464.4286622204062,432.3869532446941L463.62089920158263,432.5690975929733L462.79301843896235,432.5526324457747L461.99313640136666,432.33851475822706L461.2677422704029,431.9391890603909L460.65899598704516,431.37786418058676L460.2022779138841,430.6871643472025L459.9241325267906,429.90723306700687L459.84072564873105,429.0833999826498L459.95690489137723,428.26354631170165L466.46149333176794,419.8668095322715L473.1046340458705,412.5588558171904L482.14131061710475,404.48685445438133L493.7537221958341,399.5190119988352L499.1491325837269,409.74125720458966L498.6654418387273,422.51769280196606L514.5247391863422,419.51663259403904L521.9050273538382,418.1068851896743L521.9106767197153,418.1151365329097L521.9163260855923,418.12338787614505L517.7460023902161,424.62188409410817L508.51039967803246,432.93416397209944L500.6941533047572,434.8253757070497L491.766905047388,431.72824542643696L487.51339334223627,422.4763415899039L488.3019909762219,411.6884299975067L479.4729888905043,418.89963615379395L466.5927886758911,430.03952778689563L466.28392930662443,430.8078138977978L465.8001767587341,431.4798564043393L465.16964675303245,432.01659616446415L464.4289857230762,432.3868378380953L463.62124092272626,432.56906296176555L462.7933585177307,432.5526806027254L461.9934550723657,432.33864290445194L461.2680210124592,431.9393897480254L460.6592185996573,431.37812574565606L460.2024314587966,430.68747158753257L459.9242080799659,429.9075681257753L459.84071881901514,429.08374338622514L459.95681607571345,428.263878101452L459.0849354717039,428.0046431489782L461.10421298204307,420.2933528870494L464.83955042654503,411.8485592358662L467.99006849395676,400.9988315875243Z" fill="white">

</path><path d="M533.9965825693691,407.99060206576513L540.648530636057,403.9727015264379L547.5897746075482,398.4831026045925L553.6729304307847,391.68925384038596L558.8057776525666,377.6481142424095L562.4226093958326,368.20345094975795L563.0187001606316,358.35933599581807L559.3989133333309,351.13055857679905L556.6210910817819,342.18486627878275L550.0561390701109,351.502612555435L544.596202775755,356.72291457086845L544.5945283173796,356.7246489854231L544.5924874332786,356.72593226122547L544.590198739732,356.72668981422555L544.5877952557162,356.7268776154075L544.585416671835,356.72648474975773L544.5832012314954,356.7255340506463L544.5812776961942,356.72408077275014L544.5797578618933,356.722209380649L544.5787300614338,356.72002863973967L544.5782540306266,356.7176652947862L544.5783574364045,356.7152567035084L544.579034268819,356.7129428533445L544.5802451903384,356.71085822537464L544.588223681638,356.7168867970612L544.5962033784925,356.7229137729289L544.594529093567,356.7246483549207L544.5924883378037,356.72593183480507L544.5901997200239,356.72668961667074L544.5877962548001,356.7268776582001L544.5854176316443,356.7264850304107L544.5832020962459,356.72553455284805L544.5812784156266,356.7240814673127L544.5797583941941,356.72221022720436L544.5787303756655,356.720029589086L544.5782541085262,356.7176662917474L544.5783572734445,356.7152576901411L544.5790338744706,356.7129437723055L544.5802445875211,356.71085902325393L542.2445458237488,350.61601489835783L547.0708887054586,340.6045730629577L553.7465349101149,335.0164182979887L563.7621982448784,334.60853579632936L568.119849420136,342.60673827557406L572.0831816674734,351.0869831431079L573.8160884409182,364.11008793209527L571.2566531451963,371.95199537793286L566.7961234694678,381.49233433059146L562.3072639049097,389.6360420471103L558.8088977941715,396.18154371998014L550.6593374917018,402.43231526840754L541.6844693639431,406.8152984735621L534.0034174306309,408.00939793423487Z" fill="white">

</path><path d="M543.9906367082243,360.0035112344159L540.4544877992751,355.4134254497217L532.0360496578907,354.6113706390551L526.5942604478407,363.8548392609281L528.0681050195799,371.0722056237052L534.7785772910441,375.68762821997313L540.4735228465979,382.8020454016777L540.470170391118,382.81146670956224L540.4668179356381,382.8208880174468L531.8520816858935,382.9559186148398L524.0029453186439,381.1153424954575L518.3546714830084,374.89470750969764L516.6471947287141,364.98017598279995L521.6174912441056,356.37874147089536L528.0754168001724,349.77240466232627L536.4431844879292,348.65346066841073L543.6365122007248,354.16257455027835L544.0093632917757,359.9964887655841Z" fill="white">

</path>
</mask>
</svg>